<svg width="115" height="115" viewBox="0 0 115 115" fill="none" xmlns="http://www.w3.org/2000/svg">
<path d="M90.8 2H24.2C11.9393 2 2 11.9393 2 24.2V90.8C2 103.061 11.9393 113 24.2 113H90.8C103.061 113 113 103.061 113 90.8V24.2C113 11.9393 103.061 2 90.8 2Z" fill="#949494" fill-opacity="0.4" stroke="white" stroke-width="2.775"/>
<path d="M81.4205 37.6154C80.9779 37.1348 80.3699 36.839 79.7183 36.7877L79.5252 36.7799C78.8717 36.7774 78.2415 37.0219 77.7606 37.4645C77.2797 37.9071 76.9841 38.5151 76.9328 39.1667H38.0672L38.0439 38.9738C37.9401 38.3125 37.5847 37.717 37.0519 37.3121C36.5188 36.9073 35.8497 36.7247 35.1851 36.8021C34.5202 36.8795 33.9114 37.2114 33.4857 37.7281C33.0603 38.2448 32.8513 38.9061 32.9027 39.5732L36.5998 86.398L36.6259 86.6569C36.788 87.9048 37.3985 89.0512 38.3439 89.8815C39.2893 90.712 40.5048 91.1702 41.763 91.1699H73.2368L73.4971 91.1635C74.7536 91.1 75.9443 90.5816 76.8465 89.7044C77.7486 88.8275 78.3009 87.6523 78.3999 86.398L82.0971 39.5746L82.1048 39.3803C82.1076 38.7268 81.8631 38.0964 81.4205 37.6154Z" fill="white" stroke="white" stroke-width="2.775"/>
<path d="M85.9901 34.19C86.6619 34.1869 87.3091 34.4453 87.7941 34.9104C88.2792 35.3758 88.5645 36.0112 88.5897 36.6828C88.615 37.3543 88.378 38.0095 87.9293 38.5098C87.4803 39.0099 86.8545 39.316 86.1843 39.3634L85.9901 39.3701H29.01C28.3379 39.3729 27.691 39.1145 27.2058 38.6494C26.7207 38.1843 26.4354 37.5489 26.4102 36.8773C26.385 36.2055 26.6218 35.5506 27.0707 35.0502C27.5195 34.5499 28.1453 34.2438 28.8157 34.1964L29.01 34.19H85.9901Z" fill="white" stroke="white" stroke-width="2.775"/>
<path d="M63.9749 23.83C65.9854 23.8299 67.9174 24.609 69.3654 26.0036C70.8133 27.3982 71.6644 29.2997 71.7396 31.3087L71.7449 31.6001V36.7799C71.748 37.452 71.4896 38.0992 71.0245 38.5842C70.5592 39.0693 69.9237 39.3546 69.2521 39.3798C68.5806 39.4051 67.9254 39.1681 67.4251 38.7194C66.925 38.2704 66.6189 37.6446 66.5715 36.9742L66.5651 36.7799V31.6001C66.5651 30.9466 66.3184 30.3172 65.8741 29.838C65.4298 29.359 64.8207 29.0655 64.1692 29.0165L63.9749 29.01H51.0248C50.3716 29.0098 49.7422 29.2566 49.263 29.7009C48.784 30.1452 48.4904 30.7543 48.4413 31.4058L48.4349 31.6001V36.7799C48.438 37.452 48.1796 38.0992 47.7145 38.5842C47.2492 39.0693 46.6137 39.3546 45.9421 39.3798C45.2706 39.4051 44.6154 39.1681 44.1151 38.7194C43.615 38.2704 43.3089 37.6446 43.2615 36.9742L43.2548 36.7799V31.6001C43.2548 29.5897 44.034 27.6576 45.4285 26.2096C46.8232 24.7617 48.7246 23.9106 50.7334 23.8352L51.0248 23.83H63.9749Z" fill="white" stroke="white" stroke-width="2.775"/>
<path d="M67.8599 75.6299C69.2904 75.6299 70.4501 76.7896 70.4501 78.2201C70.4501 78.56 70.3829 78.8969 70.2528 79.211C70.1226 79.5255 69.932 79.811 69.6914 80.0513C69.4508 80.2919 69.1655 80.4826 68.8511 80.6127C68.537 80.7431 68.2001 80.81 67.8599 80.81H47.1401C46.7999 80.81 46.463 80.7431 46.1489 80.6127C45.8347 80.4826 45.5492 80.2919 45.3086 80.0513C45.068 79.811 44.8773 79.5255 44.7472 79.211C44.6171 78.8969 44.5499 78.56 44.5499 78.2201C44.5499 76.7896 45.7096 75.6299 47.1401 75.6299H67.8599Z" fill="#949494" stroke="white" stroke-width="2.775"/>
</svg>
