<svg width="32" height="34" viewBox="0 0 32 34" fill="none" xmlns="http://www.w3.org/2000/svg">
<path d="M28.6611 2.12204e-05H9.73683C9.49609 0.00286277 9.2563 0.0308384 9.02136 0.0834931C8.65391 0.0315304 8.28346 0.00364698 7.91237 2.12204e-05C5.94726 -0.00453272 4.0511 0.724025 2.59463 2.04325C1.13815 3.36248 0.226079 5.17751 0.0367433 7.13348C-0.152593 9.08946 0.394419 11.0457 1.57083 12.6198C2.74724 14.1939 4.46845 15.2726 6.39795 15.6451V30.0499C6.4011 30.9345 6.75388 31.7819 7.37936 32.4074C8.00484 33.0329 8.85227 33.3857 9.73683 33.3888H28.6611C29.0996 33.3888 29.5338 33.3024 29.9389 33.1347C30.3439 32.9669 30.712 32.7209 31.0221 32.4109C31.3321 32.1008 31.5781 31.7328 31.7458 31.3277C31.9136 30.9226 32 30.4884 32 30.0499V3.3389C32 2.45337 31.6482 1.60412 31.0221 0.977956C30.3959 0.351795 29.5466 2.12204e-05 28.6611 2.12204e-05ZM2.24821 7.89408C2.24821 6.77095 2.58141 5.67307 3.20563 4.73938C3.82986 3.80569 4.71705 3.07818 5.75492 2.64893C6.79278 2.21967 7.93467 2.10796 9.03604 2.32794C10.1374 2.54792 11.1488 3.08971 11.9421 3.88472C12.7355 4.67972 13.2751 5.69222 13.4928 6.79406C13.7104 7.8959 13.5963 9.03755 13.1649 10.0745C12.7335 11.1115 12.0041 11.9971 11.0691 12.6194C10.1341 13.2416 9.03551 13.5725 7.91237 13.5702C7.16754 13.5702 6.43002 13.4233 5.74203 13.1379C5.05405 12.8525 4.4291 12.4342 3.90298 11.907C3.37686 11.3797 2.95989 10.7539 2.67594 10.0653C2.39199 9.37675 2.24664 8.63892 2.24821 7.89408ZM29.7701 30.0499C29.7701 30.3441 29.6533 30.6261 29.4453 30.8341C29.2373 31.0421 28.9552 31.1589 28.6611 31.1589H9.73683C9.44271 31.1589 9.16064 31.0421 8.95266 30.8341C8.74469 30.6261 8.62785 30.3441 8.62785 30.0499V15.7404C10.5073 15.5671 12.2606 14.72 13.5646 13.3555C13.6597 13.367 13.7558 13.367 13.8508 13.3555H24.5829C24.8581 13.3555 25.1219 13.2462 25.3165 13.0517C25.5111 12.8571 25.6204 12.5932 25.6204 12.3181C25.6204 12.043 25.5111 11.7791 25.3165 11.5845C25.1219 11.39 24.8581 11.2807 24.5829 11.2807H15.0433C15.7811 9.78368 16.0239 8.0909 15.7367 6.44686C15.4495 4.80283 14.6471 3.29266 13.4454 2.13452H28.7088C29.0029 2.13452 29.285 2.25136 29.493 2.45933C29.701 2.66731 29.8178 2.94938 29.8178 3.2435L29.7701 30.0499Z" fill="white"/>
<path d="M9.35531 10.911C9.56505 11.1178 9.84777 11.2338 10.1423 11.2338C10.4369 11.2338 10.7196 11.1178 10.9293 10.911C11.1362 10.7013 11.2521 10.4185 11.2521 10.124C11.2521 9.82942 11.1362 9.5467 10.9293 9.33696L9.48648 7.89408L10.9293 6.46313C11.1362 6.25339 11.2521 5.97067 11.2521 5.67611C11.2521 5.38155 11.1362 5.09883 10.9293 4.88909C10.8271 4.7838 10.7048 4.70009 10.5696 4.64293C10.4344 4.58577 10.2891 4.55632 10.1423 4.55632C9.99555 4.55632 9.85027 4.58577 9.71509 4.64293C9.5799 4.70009 9.45756 4.7838 9.35531 4.88909L7.91243 6.32004L6.46956 4.88909C6.36731 4.7838 6.24497 4.70009 6.10978 4.64293C5.97459 4.58577 5.82931 4.55632 5.68254 4.55632C5.53577 4.55632 5.39049 4.58577 5.2553 4.64293C5.12011 4.70009 4.99777 4.7838 4.89552 4.88909C4.6887 5.09883 4.57275 5.38155 4.57275 5.67611C4.57275 5.97067 4.6887 6.25339 4.89552 6.46313L6.33839 7.89408L4.89552 9.33696C4.6887 9.5467 4.57275 9.82942 4.57275 10.124C4.57275 10.4185 4.6887 10.7013 4.89552 10.911C5.10938 11.1114 5.38955 11.226 5.68254 11.233C5.82845 11.2337 5.97308 11.2057 6.10814 11.1504C6.24319 11.0952 6.36601 11.0138 6.46956 10.911L7.91243 9.46812L9.35531 10.911Z" fill="white"/>
<path d="M24.5471 15.657H13.815C13.5399 15.657 13.276 15.7663 13.0814 15.9608C12.8869 16.1554 12.7776 16.4193 12.7776 16.6944C12.7776 16.9696 12.8869 17.2334 13.0814 17.428C13.276 17.6226 13.5399 17.7319 13.815 17.7319H24.5471C24.8223 17.7319 25.0862 17.6226 25.2807 17.428C25.4753 17.2334 25.5846 16.9696 25.5846 16.6944C25.5846 16.4193 25.4753 16.1554 25.2807 15.9608C25.0862 15.7663 24.8223 15.657 24.5471 15.657Z" fill="white"/>
<path d="M24.5471 19.9379H13.815C13.5399 19.9379 13.276 20.0472 13.0814 20.2418C12.8869 20.4363 12.7776 20.7002 12.7776 20.9754C12.7776 21.2505 12.8869 21.5144 13.0814 21.7089C13.276 21.9035 13.5399 22.0128 13.815 22.0128H24.5471C24.8223 22.0128 25.0862 21.9035 25.2807 21.7089C25.4753 21.5144 25.5846 21.2505 25.5846 20.9754C25.5846 20.7002 25.4753 20.4363 25.2807 20.2418C25.0862 20.0472 24.8223 19.9379 24.5471 19.9379Z" fill="white"/>
</svg>
