<svg width="20" height="20" viewBox="0 0 20 20" fill="none" xmlns="http://www.w3.org/2000/svg">
<path d="M4.1263 10.1678L3.79411 10.5415L4.16782 10.8737L8.66782 14.8737L9.33218 14.1263L5.20589 10.4585L8.8737 6.33218L8.1263 5.66782L4.1263 10.1678ZM16.3536 10.8536L16.6869 10.5202L16.3737 10.1678L12.3737 5.66782L11.6263 6.33218L15.3131 10.4798L11.6464 14.1464L12.3536 14.8536L16.3536 10.8536ZM2.5 0.5H17.5C18.6041 0.5 19.5 1.39593 19.5 2.5V17.5C19.5 18.6041 18.6041 19.5 17.5 19.5H2.5C1.39593 19.5 0.5 18.6041 0.5 17.5V2.5C0.5 1.39593 1.39593 0.5 2.5 0.5Z" fill="#398DDA" stroke="black"/>
</svg>
