<svg width="20" height="23" viewBox="0 0 20 23" fill="none" xmlns="http://www.w3.org/2000/svg">
<path d="M2.01999 0.500196L2.02619 0.5H2.22845C2.54792 0.5 2.84514 0.571026 3.09374 0.713739L3.09462 0.714244L18.7062 9.63426L18.7062 9.63432L18.7134 9.63832C19.2056 9.90876 19.5 10.4973 19.5 11.1485C19.5 11.7986 19.206 12.3897 18.7104 12.6665L18.7104 12.6665L18.7062 12.6689L3.09462 21.5889L3.09373 21.5894C2.84527 21.732 2.55022 21.802 2.23638 21.797L2.23639 21.7969H2.22845H2.02353L2.02318 21.7969L2.02303 21.7969L2.01692 21.7968C2.00907 21.7965 1.99482 21.7959 1.97511 21.7943C1.93549 21.7912 1.87494 21.7846 1.80063 21.7704C1.6501 21.7417 1.45479 21.6843 1.26386 21.5727C0.915236 21.3689 0.5 20.941 0.5 19.9191V2.39029C0.5 1.36822 0.915556 0.93621 1.26584 0.729276C1.45725 0.616197 1.65291 0.55759 1.80354 0.527927C1.87792 0.513279 1.93852 0.506242 1.97815 0.502897C1.99788 0.501232 2.01214 0.500506 2.01999 0.500196Z" fill="#E6A23D" stroke="black"/>
</svg>
